<svg width="256" height="256" viewBox="0 0 256 256" fill="none" xmlns="http://www.w3.org/2000/svg">
<circle cx="127.5" cy="127.5" r="124.5" fill="white"/>
<path d="M123.785 29C152.904 29 176.509 52.9735 176.509 82.5464V113.336C176.509 142.908 152.904 166.882 123.785 166.882C119.212 166.882 114.774 166.291 110.542 165.179L110.543 168.813C110.543 190.447 93.1911 208.026 71.6539 208.375L71 208.381V90.5784L71.0604 90.577L71.062 82.5464C71.062 52.9735 94.6671 29 123.785 29ZM123.785 69.1598C116.506 69.1598 110.605 75.1532 110.605 82.5464V113.336C110.605 120.729 116.506 126.722 123.785 126.722C131.065 126.722 136.966 120.729 136.966 113.336V82.5464C136.966 75.1532 131.065 69.1598 123.785 69.1598Z" fill="#4C249F"/>
<path d="M222.33 165.661C222.33 190.7 202.009 211 176.941 211C151.872 211 131.552 190.7 131.552 165.661C131.552 140.621 151.872 120.321 176.941 120.321C202.009 120.321 222.33 140.621 222.33 165.661Z" fill="white" stroke="#4C249F" stroke-width="2"/>
<path d="M178.315 135.676C188.105 135.676 196.042 143.691 196.042 153.577V163.87C196.042 173.757 188.105 181.772 178.315 181.772C176.778 181.772 175.285 181.574 173.863 181.202L173.863 182.417C173.863 189.65 168.029 195.526 160.788 195.643L160.568 195.645V156.262L160.588 156.262L160.589 153.577C160.589 143.691 168.525 135.676 178.315 135.676ZM178.315 149.102C175.868 149.102 173.884 151.106 173.884 153.577V163.87C173.884 166.342 175.868 168.346 178.315 168.346C180.763 168.346 182.747 166.342 182.747 163.87V153.577C182.747 151.106 180.763 149.102 178.315 149.102Z" fill="#4C249F"/>
</svg>
