<svg width="256" height="256" viewBox="0 0 256 256" fill="none" xmlns="http://www.w3.org/2000/svg">
<g clip-path="url(#clip0)">
<circle cx="127.5" cy="127.5" r="124.5" fill="white"/>
<path d="M123.785 29C152.904 29 176.509 52.9735 176.509 82.5464V113.336C176.509 142.908 152.904 166.882 123.785 166.882C119.212 166.882 114.774 166.291 110.542 165.179L110.543 168.813C110.543 190.447 93.1911 208.026 71.6539 208.375L71 208.381V90.5784L71.0604 90.577L71.062 82.5464C71.062 52.9735 94.6671 29 123.785 29ZM123.785 69.1598C116.506 69.1598 110.605 75.1532 110.605 82.5464V113.336C110.605 120.729 116.506 126.722 123.785 126.722C131.065 126.722 136.966 120.729 136.966 113.336V82.5464C136.966 75.1532 131.065 69.1598 123.785 69.1598Z" fill="#4C249F"/>
<circle cx="177" cy="165" r="44.5" fill="#2775CA" stroke="#2775CA" stroke-width="3"/>
<path d="M177.345 123.345C154.155 123.345 135.345 142.155 135.345 165.345C135.345 188.536 154.155 207.345 177.345 207.345C200.536 207.345 219.345 188.536 219.345 165.345C219.345 142.155 200.536 123.345 177.345 123.345ZM169.473 194.548C169.473 195.536 168.698 196.096 167.743 195.8C155.044 191.748 145.837 179.84 145.837 165.79C145.837 151.741 155.044 139.833 167.743 135.781C168.698 135.484 169.473 136.044 169.473 137.033V139.47C169.473 140.129 168.962 140.903 168.336 141.117C158.289 144.807 151.091 154.458 151.091 165.774C151.091 177.089 158.289 186.741 168.336 190.43C168.962 190.661 169.473 191.418 169.473 192.077V194.548ZM179.981 185.473C179.964 186.197 179.371 186.79 178.647 186.79H176.028C175.303 186.79 174.71 186.197 174.71 185.473V181.322C168.978 180.548 166.178 177.336 165.421 172.971C165.289 172.23 165.882 171.555 166.64 171.555H169.637C170.263 171.555 170.79 172 170.922 172.625C171.482 175.228 172.981 177.221 177.576 177.221C180.969 177.221 183.374 175.327 183.374 172.494C183.374 169.661 181.957 168.59 176.983 167.767C169.637 166.778 166.162 164.555 166.162 158.79C166.162 154.343 169.522 150.884 174.727 150.143V146.075C174.727 145.35 175.32 144.757 176.044 144.757H178.663C179.388 144.757 179.981 145.35 179.981 146.075V150.258C184.214 151.016 186.898 153.421 187.771 157.407C187.936 158.164 187.343 158.873 186.569 158.873H183.802C183.209 158.873 182.715 158.477 182.534 157.901C181.793 155.364 179.981 154.277 176.835 154.277C173.36 154.277 171.564 155.957 171.564 158.313C171.564 160.8 172.585 162.051 177.922 162.825C185.136 163.814 188.858 165.873 188.858 172.016C188.858 176.677 185.4 180.449 179.981 181.322V185.473ZM186.948 195.8C185.993 196.096 185.218 195.536 185.218 194.548V192.11C185.218 191.385 185.663 190.71 186.355 190.463C196.402 186.774 203.6 177.122 203.6 165.807C203.6 154.491 196.402 144.84 186.355 141.15C185.729 140.92 185.218 140.162 185.218 139.503V137.065C185.218 136.077 185.993 135.501 186.948 135.814C199.647 139.865 208.854 151.774 208.854 165.823C208.837 179.84 199.647 191.731 186.948 195.8Z" fill="white"/>
</g>
<defs>
<clipPath id="clip0">
<rect width="256" height="256" fill="white"/>
</clipPath>
</defs>
</svg>
